<?xml version="1.0" encoding="UTF-8" standalone="no"?>
<!-- Created with Inkscape (http://www.inkscape.org/) -->

<svg
   width="96.720001mm"
   height="17.231001mm"
   viewBox="0 0 96.720001 17.231001"
   version="1.1"
   id="svg875"
   inkscape:version="1.1 (c68e22c387, 2021-05-23)"
   sodipodi:docname="coding4u.svg"
   xmlns:inkscape="http://www.inkscape.org/namespaces/inkscape"
   xmlns:sodipodi="http://sodipodi.sourceforge.net/DTD/sodipodi-0.dtd"
   xmlns="http://www.w3.org/2000/svg"
   xmlns:svg="http://www.w3.org/2000/svg">
  <sodipodi:namedview
     id="namedview877"
     pagecolor="#ffffff"
     bordercolor="#666666"
     borderopacity="1.0"
     inkscape:pageshadow="2"
     inkscape:pageopacity="0.0"
     inkscape:pagecheckerboard="0"
     inkscape:document-units="mm"
     showgrid="false"
     width="96.72mm"
     inkscape:zoom="1.4681257"
     inkscape:cx="213.197"
     inkscape:cy="231.92837"
     inkscape:window-width="1920"
     inkscape:window-height="1009"
     inkscape:window-x="1912"
     inkscape:window-y="486"
     inkscape:window-maximized="1"
     inkscape:current-layer="text55620" />
  <defs
     id="defs872" />
  <g
     inkscape:label="Camada 1"
     inkscape:groupmode="layer"
     id="layer1">
    <g
       aria-label="technology"
       id="text55620"
       style="font-size:4.6556px;line-height:1.25;font-family:'Gtek Technology';-inkscape-font-specification:'Gtek Technology';fill:#888888;stroke-width:0.116391">
      <g
         id="g1285">
        <g
           aria-label="coding"
           id="text34680"
           style="font-size:15.6774px;line-height:1.25;font-family:'Gtek Technology';-inkscape-font-specification:'Gtek Technology';fill:#ffffff;stroke-width:0.391936">
          <path
             d="m 12.761403,12.660909 q 0,0.297871 -0.188128,0.501677 -0.172452,0.203806 -0.517355,0.203806 H 5.3303159 q -2.4456743,0 -4.1388335,-1.959675 Q 3.1582644e-8,9.9173642 3.1582644e-8,8.0360763 V 7.7225283 Q 3.1582644e-8,5.2768539 1.959675,3.5836948 3.449028,2.3922124 5.3303159,2.3922124 H 12.05592 q 0.313548,0 0.501677,0.1881288 0.203806,0.1724514 0.203806,0.5173542 v 0.7995474 q 0,0.2978705 -0.188128,0.5016767 -0.172452,0.2038062 -0.517355,0.2038062 H 6.7099271 q -1.959675,0 -2.35161,0.2821932 -0.5016768,0.1410966 -1.2541919,0.8779344 -0.8465796,1.0660632 -0.8465796,2.116449 0,1.3952885 1.3169015,2.5397387 0.862257,0.72116 2.586771,0.72116 H 12.05592 q 0.297871,0 0.501677,0.188129 0.203806,0.172452 0.203806,0.517354 v 0.815225 z"
             id="path1001" />
          <path
             d="m 21.90132,2.3922124 q 2.71219,0 4.452382,2.3672873 0.877934,1.3952886 0.877934,2.9159964 v 0.4076124 q 0,2.5397385 -2.194836,4.2799305 -1.442321,1.003353 -3.119803,1.003353 h -3.07277 q -2.445674,0 -4.138833,-1.959675 -1.191483,-1.4893528 -1.191483,-3.3706407 v -0.313548 q 0,-2.4456744 1.959675,-4.1388335 1.489353,-1.1914824 3.370641,-1.1914824 z m -6.129863,5.4870899 q 0,1.3952885 1.316901,2.5397387 0.862257,0.72116 2.586771,0.72116 h 0.830903 q 2.006707,0 2.398642,-0.29787 1.08174,-0.454645 1.708836,-1.5834176 0.344903,-0.705483 0.344903,-1.4109659 0,-1.4423208 -1.395289,-2.586771 -0.830902,-0.6584508 -2.555416,-0.6584508 h -0.78387 q -1.959675,0 -2.35161,0.2821932 -0.501676,0.1410966 -1.254192,0.8779344 -0.846579,1.0660632 -0.846579,2.116449 z"
             id="path1003" />
          <path
             d="m 27.984127,3.0976954 q 0,-0.313548 0.172451,-0.5016768 0.188129,-0.2038062 0.533032,-0.2038062 h 6.725605 q 2.71219,0 4.452381,2.3672873 0.877934,1.3952886 0.877934,2.9159964 v 0.4076124 q 0,2.5397385 -2.179158,4.2799305 -1.442321,1.003353 -3.13548,1.003353 H 28.68961 q -0.313548,0 -0.517354,-0.172451 -0.188129,-0.188129 -0.188129,-0.533032 V 6.8759487 q 0,-0.313548 0.172451,-0.5016768 0.188129,-0.1881288 0.533032,-0.1881288 h 0.815225 q 0.29787,0 0.501677,0.1724514 0.203806,0.1724514 0.203806,0.5173542 v 2.8689641 q 0,1.1130952 0.407612,1.2541922 0.125419,0.07839 0.376258,0.109742 0.250838,0.03135 0.611418,0.03135 h 2.429997 q 2.05374,0 2.429997,-0.313548 1.019031,-0.423289 1.646127,-1.5207074 0.376258,-0.705483 0.376258,-1.4579981 0,-1.4423208 -1.395289,-2.586771 Q 36.261794,4.6027257 34.521603,4.6027257 H 28.68961 q -0.297871,0 -0.501677,-0.1724514 Q 27.984127,4.2421455 27.984127,3.8972428 V 3.0976954 Z"
             id="path1005" />
          <path
             d="m 41.498039,3.0976954 q 0,-0.313548 0.172452,-0.5016768 0.188128,-0.2038062 0.533031,-0.2038062 h 0.799548 q 0.29787,0 0.485999,0.1881288 0.203806,0.1724514 0.203806,0.5173542 v 9.5632136 q 0,0.297871 -0.172451,0.501677 -0.172452,0.203806 -0.517354,0.203806 h -0.799548 q -0.313548,0 -0.517354,-0.172451 -0.188129,-0.188129 -0.188129,-0.533032 V 3.0976954 Z"
             id="path1007" />
          <path
             d="m 44.445385,3.0976954 q 0,-0.313548 0.172451,-0.5016768 0.188129,-0.2038062 0.533032,-0.2038062 h 1.003354 q 0.689805,0 1.238514,0.5643864 3.151157,2.9943833 4.797284,4.5464459 1.646127,1.5520625 1.834256,1.7245139 0.313548,0.1881288 0.517354,0.2038062 0.470322,0 0.470322,-1.2228371 V 3.0976954 q 0,-0.2978706 0.172452,-0.5016768 0.172451,-0.2038062 0.517354,-0.2038062 h 0.799547 q 0.313548,0 0.501677,0.1881288 0.203806,0.1724514 0.203806,0.5173542 v 9.5632136 q 0,0.297871 -0.188128,0.501677 -0.172452,0.203806 -0.517355,0.203806 h -0.956321 q -0.799547,0 -1.473676,-0.799547 L 47.627897,6.4840137 q -0.313548,-0.1724514 -0.485999,-0.1724514 -0.470322,0 -0.470322,1.2071598 v 5.1421869 q 0,0.297871 -0.188129,0.501677 -0.172451,0.203806 -0.517354,0.203806 h -0.815225 q -0.313548,0 -0.517354,-0.172451 -0.188129,-0.188129 -0.188129,-0.533032 V 3.0976954 Z"
             id="path1009" />
          <path
             d="m 70.720701,12.660909 q 0,0.297871 -0.188129,0.501677 -0.172452,0.203806 -0.517354,0.203806 h -6.725605 q -2.445674,0 -4.138833,-1.959675 -1.191483,-1.4893528 -1.191483,-3.3706407 v -0.313548 q 0,-2.4456744 1.959675,-4.1388335 1.489353,-1.1914824 3.370641,-1.1914824 h 6.725605 q 0.313548,0 0.501676,0.1881288 0.203807,0.1724514 0.203807,0.5173542 v 0.7995474 q 0,0.2978705 -0.188129,0.5016767 -0.172452,0.2038062 -0.517354,0.2038062 h -5.345994 q -1.959675,0 -2.35161,0.2821932 -1.175805,0.4859994 -1.802901,1.7088366 -0.29787,0.6584508 -0.29787,1.2855468 0,1.3952885 1.316901,2.5397387 0.862257,0.72116 2.586771,0.72116 h 2.994384 q 1.113095,0 1.254192,-0.407612 0.156774,-0.250838 0.156774,-0.9876762 V 6.8759487 q 0,-0.2978706 0.172451,-0.4859994 0.172451,-0.2038062 0.517354,-0.2038062 h 0.799548 q 0.29787,0 0.501676,0.1724514 0.203807,0.1724514 0.203807,0.5173542 v 5.7849603 z"
             id="path1011" />
        </g>
        <g
           id="g35663"
           transform="matrix(0.37612026,0,0,0.37612026,33.822566,-40.823409)">
          <path
             d="m 100.1315,138.87741 22.15561,-30.33923 h 9.53419 l -21.61081,29.99351 h 26.9746 v 5.44556 H 100.1315 Z m 28.46635,-13.10948 h 9.03476 l -0.0242,24.66181 -9.0102,10e-4 z"
             style="font-style:normal;font-variant:normal;font-weight:normal;font-stretch:normal;font-size:10.5833px;line-height:1.25;font-family:Bahnschrift;-inkscape-font-specification:Bahnschrift;letter-spacing:0px;word-spacing:0px;fill:#ffbf00;fill-opacity:1;stroke:none;stroke-width:1.85178"
             id="path35657"
             inkscape:connector-curvature="0"
             sodipodi:nodetypes="ccccccccccccc" />
          <path
             sodipodi:nodetypes="ccccccccccccsccscc"
             inkscape:connector-curvature="0"
             id="path35659"
             style="font-style:normal;font-variant:normal;font-weight:normal;font-stretch:normal;font-size:10.5833px;line-height:1.25;font-family:Bahnschrift;-inkscape-font-specification:Bahnschrift;letter-spacing:0px;word-spacing:0px;fill:#ffffff;fill-opacity:1;stroke:none;stroke-width:1.82769"
             d="m 133.50525,125.76711 -0.0839,21.46382 c -0.0596,2.01126 3.7222,3.30688 4.18715,3.19881 1.20594,-4.3304 -0.13278,-15.44279 0.12372,-24.6619 4.70724,1.7e-4 -2.9611,1.7e-4 -4.31092,0 z m 24.69952,12.93603 c 0,2.09367 -0.81083,3.71674 -2.43251,4.86923 -1.65115,1.13331 -3.96572,1.69995 -6.94371,1.69995 -2.94847,0 -6.69026,0.03 -8.31193,-0.99032 -1.62168,-1.01803 -2.49873,-2.15473 -2.49873,-4.03715 l -0.40934,10.18489 13.65159,0.003 c 5.0714,0.001 9.08225,-0.62563 11.85383,-2.73857 2.74209,-2.13212 4.11315,-5.12855 4.11315,-8.98941 v -18.18049 h -9.0224 z" />
        </g>
        <path
           d="m 41.537262,14.181508 q 0,-0.09311 0.05121,-0.148979 0.05587,-0.06052 0.15829,-0.06052 h 3.370654 q 0.09311,0 0.14898,0.05587 0.06052,0.05121 0.06052,0.153634 v 0.237436 q 0,0.08846 -0.05587,0.148979 -0.05121,0.06052 -0.153635,0.06052 h -0.940431 q -0.330547,0 -0.372448,0.125701 -0.02328,0.03725 -0.03259,0.111735 -0.0093,0.07449 -0.0093,0.181568 v 1.973975 q 0,0.08846 -0.05587,0.148979 -0.05121,0.06052 -0.153635,0.06052 h -0.242091 q -0.09311,0 -0.153635,-0.05121 -0.05587,-0.05121 -0.05587,-0.15829 V 15.04745 q 0,-0.330548 -0.121046,-0.372448 -0.07449,-0.04656 -0.293303,-0.04656 h -0.940431 q -0.08846,0 -0.148979,-0.05121 -0.06052,-0.05587 -0.06052,-0.15829 v -0.237436 z"
           id="path845" />
        <path
           d="m 45.550387,14.181508 q 0,-0.09311 0.05121,-0.148979 0.05587,-0.06052 0.15829,-0.06052 h 3.370654 q 0.09311,0 0.14898,0.05587 0.06052,0.05121 0.06052,0.153634 v 0.237436 q 0,0.08846 -0.05587,0.148979 -0.05121,0.06052 -0.153635,0.06052 h -3.370654 q -0.08846,0 -0.148979,-0.05121 -0.06052,-0.05587 -0.06052,-0.15829 z m 0,1.122 q 0,-0.09311 0.05121,-0.148979 0.05587,-0.05587 0.15829,-0.05587 h 3.370654 q 0.08846,0 0.14898,0.05121 0.06052,0.05121 0.06052,0.153635 v 0.242091 q 0,0.08846 -0.05587,0.148979 -0.05121,0.06052 -0.153635,0.06052 h -3.370654 q -0.09311,0 -0.153635,-0.05121 -0.05587,-0.05587 -0.05587,-0.158291 z m 0,1.475825 q 0,-0.09311 0.05121,-0.148979 0.05587,-0.06052 0.15829,-0.06052 h 3.370654 q 0.08846,0 0.14898,0.05587 0.06052,0.05121 0.06052,0.153634 v 0.242092 q 0,0.08846 -0.05587,0.148979 -0.05121,0.06052 -0.153635,0.06052 h -3.370654 q -0.09311,0 -0.153635,-0.05121 -0.05587,-0.05587 -0.05587,-0.15829 z"
           id="path847" />
        <path
           d="m 53.35317,17.021425 q 0,0.08846 -0.05587,0.148979 -0.05121,0.06052 -0.153635,0.06052 h -1.997252 q -0.726274,0 -1.229079,-0.58195 -0.353825,-0.442283 -0.353825,-1.000955 v -0.09311 q 0,-0.726273 0.58195,-1.229078 0.442282,-0.353826 1.000954,-0.353826 h 1.997252 q 0.09311,0 0.14898,0.05587 0.06052,0.05121 0.06052,0.153634 v 0.237436 q 0,0.08846 -0.05587,0.148979 -0.05121,0.06052 -0.153635,0.06052 h -1.587559 q -0.58195,0 -0.69834,0.0838 -0.14898,0.0419 -0.372448,0.260713 -0.251403,0.316581 -0.251403,0.628506 0,0.414349 0.391071,0.754208 0.256058,0.214157 0.768174,0.214157 h 1.750505 q 0.08846,0 0.14898,0.05587 0.06052,0.05121 0.06052,0.153634 v 0.242092 z"
           id="path849" />
        <path
           d="m 53.576637,14.181508 q 0,-0.09311 0.05121,-0.148979 0.05587,-0.06052 0.15829,-0.06052 h 0.242091 q 0.09311,0 0.14898,0.05587 0.06052,0.05121 0.06052,0.153634 v 0.49815 q 0,0.330547 0.121046,0.372448 0.0838,0.04656 0.293303,0.04656 h 1.643427 q 0.330547,0 0.372448,-0.125702 0.04656,-0.07449 0.04656,-0.293302 v -0.49815 q 0,-0.08846 0.05121,-0.148979 0.05121,-0.06052 0.153635,-0.06052 h 0.237436 q 0.09311,0 0.148979,0.05587 0.06052,0.05121 0.06052,0.153634 v 2.839917 q 0,0.08846 -0.05587,0.148979 -0.05121,0.06052 -0.153635,0.06052 h -0.237436 q -0.09311,0 -0.148979,-0.05121 -0.05587,-0.05121 -0.05587,-0.15829 V 16.16945 q 0,-0.325892 -0.125701,-0.367793 -0.07449,-0.04656 -0.293303,-0.04656 h -1.643427 q -0.330548,0 -0.372448,0.125701 -0.02328,0.03725 -0.03259,0.111735 -0.0093,0.06983 -0.0093,0.176913 v 0.851975 q 0,0.08846 -0.05587,0.148979 -0.05121,0.06052 -0.153635,0.06052 h -0.242091 q -0.09311,0 -0.153635,-0.05121 -0.05587,-0.05587 -0.05587,-0.15829 v -2.839917 z"
           id="path851" />
        <path
           d="m 57.589762,14.181508 q 0,-0.09311 0.05121,-0.148979 0.05587,-0.06052 0.158291,-0.06052 h 0.297958 q 0.204847,0 0.367793,0.167602 0.935775,0.88922 1.424613,1.350124 0.488838,0.460904 0.544705,0.512116 0.09311,0.05587 0.153635,0.06052 0.139668,0 0.139668,-0.363137 v -1.517726 q 0,-0.08846 0.05121,-0.148979 0.05121,-0.06052 0.153635,-0.06052 h 0.237435 q 0.09311,0 0.148979,0.05587 0.06052,0.05121 0.06052,0.153634 v 2.839917 q 0,0.08846 -0.05587,0.148979 -0.05121,0.06052 -0.153635,0.06052 h -0.283991 q -0.237436,0 -0.437627,-0.237436 l -1.913451,-1.806373 q -0.09311,-0.05121 -0.144324,-0.05121 -0.139668,0 -0.139668,0.358482 v 1.527037 q 0,0.08846 -0.05587,0.148979 -0.05121,0.06052 -0.153635,0.06052 h -0.242091 q -0.09311,0 -0.153635,-0.05121 -0.05587,-0.05587 -0.05587,-0.15829 v -2.839917 z"
           id="path853" />
        <path
           d="m 64.093632,13.972006 q 0.805419,0 1.322191,0.702996 0.260713,0.414348 0.260713,0.865942 v 0.121045 q 0,0.754208 -0.651784,1.270979 -0.428315,0.297959 -0.926464,0.297959 H 63.18579 q -0.726273,0 -1.229078,-0.58195 -0.353826,-0.442283 -0.353826,-1.000955 v -0.09311 q 0,-0.726273 0.58195,-1.229078 0.442282,-0.353826 1.000954,-0.353826 z m -1.820339,1.62946 q 0,0.414349 0.39107,0.754208 0.256058,0.214157 0.768174,0.214157 h 0.246747 q 0.595917,0 0.712307,-0.08846 0.321236,-0.135012 0.50746,-0.470216 0.102423,-0.209502 0.102423,-0.419004 0,-0.428315 -0.414348,-0.768174 -0.246747,-0.195535 -0.758863,-0.195535 h -0.23278 q -0.58195,0 -0.69834,0.0838 -0.148979,0.0419 -0.372448,0.260713 -0.251402,0.316581 -0.251402,0.628506 z"
           id="path855" />
        <path
           d="m 65.899998,14.181508 q 0,-0.09311 0.05121,-0.148979 0.05587,-0.06052 0.158291,-0.06052 h 0.237435 q 0.214158,0 0.214158,0.256058 v 0.991643 q 0,0.595917 0.07449,0.69834 0.139668,0.34917 0.502804,0.544706 0.176913,0.107078 0.689029,0.107078 h 1.652738 q 0.08846,0 0.148979,0.05587 0.06052,0.05121 0.06052,0.153634 v 0.242092 q 0,0.08846 -0.05587,0.148979 -0.05121,0.06052 -0.153635,0.06052 h -1.997252 q -0.726274,0 -1.229079,-0.58195 -0.353825,-0.442283 -0.353825,-1.000955 v -1.466514 z"
           id="path857" />
        <path
           d="m 72.161778,13.972006 q 0.805419,0 1.32219,0.702996 0.260714,0.414348 0.260714,0.865942 v 0.121045 q 0,0.754208 -0.651784,1.270979 -0.428315,0.297959 -0.926464,0.297959 h -0.912498 q -0.726274,0 -1.229078,-0.58195 -0.353826,-0.442283 -0.353826,-1.000955 v -0.09311 q 0,-0.726273 0.58195,-1.229078 0.442282,-0.353826 1.000954,-0.353826 z m -1.82034,1.62946 q 0,0.414349 0.391071,0.754208 0.256058,0.214157 0.768174,0.214157 h 0.246747 q 0.595916,0 0.712306,-0.08846 0.321237,-0.135012 0.507461,-0.470216 0.102423,-0.209502 0.102423,-0.419004 0,-0.428315 -0.414348,-0.768174 -0.246747,-0.195535 -0.758863,-0.195535 h -0.23278 q -0.58195,0 -0.69834,0.0838 -0.148979,0.0419 -0.372448,0.260713 -0.251403,0.316581 -0.251403,0.628506 z"
           id="path859" />
        <path
           d="m 77.757802,17.021425 q 0,0.08846 -0.05587,0.148979 -0.05121,0.06052 -0.153635,0.06052 h -1.997253 q -0.726273,0 -1.229078,-0.58195 -0.353826,-0.442283 -0.353826,-1.000955 v -0.09311 q 0,-0.726273 0.58195,-1.229078 0.442282,-0.353826 1.000954,-0.353826 H 77.5483 q 0.09311,0 0.148979,0.05587 0.06052,0.05121 0.06052,0.153634 v 0.237436 q 0,0.08846 -0.05587,0.148979 -0.05121,0.06052 -0.153635,0.06052 h -1.58756 q -0.58195,0 -0.69834,0.0838 -0.34917,0.144323 -0.535394,0.50746 -0.08846,0.195535 -0.08846,0.381759 0,0.414349 0.39107,0.754208 0.256058,0.214157 0.768174,0.214157 h 0.88922 q 0.330548,0 0.372448,-0.121045 0.04656,-0.07449 0.04656,-0.293303 v -0.851975 q 0,-0.08846 0.05121,-0.144324 0.05121,-0.06052 0.153634,-0.06052 H 77.5483 q 0.08846,0 0.148979,0.05121 0.06052,0.05121 0.06052,0.153635 v 1.717917 z"
           id="path861" />
        <path
           d="m 79.657286,17.230927 q -0.09311,0 -0.153635,-0.05121 -0.05587,-0.05587 -0.05587,-0.15829 v -0.861287 q 0,-0.367792 -0.0838,-0.460904 -0.07915,-0.121046 -0.954398,-1.080099 -0.01397,-0.02328 -0.325892,-0.372448 -0.102423,-0.102423 -0.102423,-0.181569 0,-0.07915 0.144323,-0.09311 h 0.49815 q 0.223468,0 0.395726,0.242092 0.293302,0.321236 0.442282,0.488838 0.148979,0.167601 0.167601,0.181568 0.0838,0.05587 0.148979,0.05587 0.144324,0 0.372448,-0.297958 0.395726,-0.451593 0.572639,-0.614539 0.102423,-0.05587 0.214158,-0.05587 h 0.484182 q 0.148979,0 0.148979,0.102424 v 0.0047 q 0,0.07915 -0.223468,0.30727 -0.521428,0.58195 -0.800764,0.898531 -0.279336,0.311925 -0.325892,0.372448 -0.111734,0.09777 -0.111734,0.493493 v 0.870598 q 0,0.08846 -0.05121,0.148979 -0.05121,0.06052 -0.153634,0.06052 h -0.246747 z"
           id="path863" />
      </g>
    </g>
  </g>
</svg>
